<svg width="52" height="51" xmlns="http://www.w3.org/2000/svg" xmlns:xlink="http://www.w3.org/1999/xlink" xml:space="preserve" overflow="hidden"><g transform="translate(-625 -387)"><path d="M25.5069 7.4375C35.4826 7.4375 43.5694 15.5243 43.5694 25.5 43.5694 35.4757 35.4826 43.5625 25.5069 43.5625 15.5313 43.5625 7.44441 35.4757 7.44441 25.5 7.45583 15.5291 15.536 7.44892 25.5069 7.4375M25.5069 5.3125C14.3577 5.3125 5.31941 14.3508 5.31941 25.5 5.31941 36.6492 14.3577 45.6875 25.5069 45.6875 36.6561 45.6875 45.6944 36.6492 45.6944 25.5 45.6944 14.3508 36.6561 5.3125 25.5069 5.3125Z" stroke="#156082" stroke-width="0.53125" fill="#156082" transform="matrix(1.01961 0 0 1 625 387)"/><path d="M11.1594 20.6603 14.9781 18.7106 15.5364 14.4596 18.5709 17.4882 22.7869 16.7062 20.8436 20.528 22.8905 24.2957 18.6548 23.6284 15.7043 26.7394 15.0296 22.5053 11.1594 20.6603Z" stroke="#156082" stroke-width="0.53125" fill="#156082" transform="matrix(1.01961 0 0 1 625 387)"/><path d="M36.0198 22.5053 35.3457 26.7394 32.3951 23.6284 28.1594 24.2957 30.2063 20.528 28.263 16.7062 32.4785 17.4882 35.513 14.4596 36.0719 18.7106 39.8905 20.6603 36.0198 22.5053Z" stroke="#156082" stroke-width="0.53125" fill="#156082" transform="matrix(1.01961 0 0 1 625 387)"/><path d="M25.5032 40.375C20.4337 40.3754 15.8061 37.4899 13.5756 32.9375L37.4287 32.9375C35.1984 37.4892 30.5719 40.3746 25.5032 40.375Z" stroke="#156082" stroke-width="0.53125" fill="#156082" transform="matrix(1.01961 0 0 1 625 387)"/></g></svg>