<svg width="51" height="51" xmlns="http://www.w3.org/2000/svg" xmlns:xlink="http://www.w3.org/1999/xlink" xml:space="preserve" overflow="hidden"><g transform="translate(-798 -387)"><path d="M815 413.647C815 413.647 819.25 410.375 819.25 407.772 819.25 406.024 816.594 404.149 815 407.272 813.406 404.149 810.75 406.024 810.75 407.772 810.75 410.375 815 413.647 815 413.647Z" stroke="#156082" stroke-width="0.53125" fill="#156082"/><path d="M833.838 419.624C833.373 419.268 832.708 419.356 832.351 419.821 828.6 424.709 821.596 425.63 816.708 421.879 815.935 421.286 815.243 420.594 814.649 419.821 814.291 419.356 813.624 419.269 813.159 419.627 812.694 419.985 812.607 420.652 812.965 421.117 817.432 426.935 825.77 428.031 831.588 423.564 832.507 422.858 833.329 422.036 834.035 421.117 834.393 420.652 834.306 419.985 833.842 419.627 833.84 419.626 833.839 419.625 833.838 419.624Z" stroke="#156082" stroke-width="0.53125" fill="#156082"/><path d="M832 407.272C830.406 404.149 827.75 406.024 827.75 407.772 827.75 410.396 832 413.647 832 413.647 832 413.647 836.25 410.375 836.25 407.772 836.25 406.024 833.594 404.149 832 407.272Z" stroke="#156082" stroke-width="0.53125" fill="#156082"/><path d="M823.5 394.438C833.476 394.438 841.562 402.524 841.562 412.5 841.562 422.476 833.476 430.562 823.5 430.562 813.524 430.562 805.438 422.476 805.438 412.5 805.438 402.524 813.524 394.438 823.5 394.438M823.5 392.312C812.351 392.312 803.312 401.351 803.312 412.5 803.312 423.649 812.351 432.688 823.5 432.688 834.649 432.688 843.688 423.649 843.688 412.5 843.688 401.351 834.649 392.312 823.5 392.312Z" stroke="#156082" stroke-width="0.53125" fill="#156082"/></g></svg>