<svg width="52" height="51" xmlns="http://www.w3.org/2000/svg" xmlns:xlink="http://www.w3.org/1999/xlink" xml:space="preserve" overflow="hidden"><g transform="translate(-452 -387)"><path d="M37.1875 22.3125C37.1875 24.0729 35.7604 25.5 34 25.5 32.2396 25.5 30.8125 24.0729 30.8125 22.3125 30.8125 20.5521 32.2396 19.125 34 19.125 35.7604 19.125 37.1875 20.5521 37.1875 22.3125Z" stroke="#156082" stroke-width="0.53125" fill="#156082" transform="matrix(1.01961 0 0 1 452 387)"/><path d="M36.2791 30.2812C35.8275 29.9997 35.0306 29.8137 34.6163 30.2494 36.3162 29.7606 36.6403 32.6134 35.0678 32.6294 34.0053 32.6294 32.7463 31.6306 31.8803 31.1366 30.5841 30.3875 29.3781 29.5428 27.8056 29.6225 26.9468 29.6832 26.1339 30.0334 25.5 30.6159 24.8676 30.0245 24.0524 29.6666 23.1891 29.6012 21.5953 29.5216 20.4106 30.3662 19.1144 31.1153 18.2537 31.6094 16.9894 32.6188 15.9269 32.6081 14.3331 32.6081 14.6784 29.7394 16.3784 30.2281 15.9641 29.7925 15.1672 29.9784 14.7156 30.26 14.0646 30.7215 13.718 31.5022 13.8125 32.2947 13.9719 34.0797 15.555 34.9509 17.1594 35.2484 18.9694 35.5096 20.8162 35.3049 22.525 34.6534 23.4387 34.3347 24.7775 33.8247 25.4894 32.9694 26.2013 33.8247 27.54 34.3347 28.4538 34.6534 30.1626 35.3049 32.0094 35.5096 33.8194 35.2484 35.4131 34.9563 37.0069 34.0797 37.1662 32.2947 37.2561 31.5125 36.9169 30.7427 36.2791 30.2812Z" stroke="#156082" stroke-width="0.53125" fill="#156082" transform="matrix(1.01961 0 0 1 452 387)"/><path d="M21.25 22.3125C21.25 21.7257 20.7743 21.25 20.1875 21.25L13.8125 21.25C13.2257 21.25 12.75 21.7257 12.75 22.3125 12.75 22.8993 13.2257 23.375 13.8125 23.375L20.1875 23.375C20.7743 23.375 21.25 22.8993 21.25 22.3125Z" stroke="#156082" stroke-width="0.53125" fill="#156082" transform="matrix(1.01961 0 0 1 452 387)"/><path d="M25.5 7.4375C35.4757 7.4375 43.5625 15.5243 43.5625 25.5 43.5625 35.4757 35.4757 43.5625 25.5 43.5625 15.5243 43.5625 7.4375 35.4757 7.4375 25.5 7.4375 15.5243 15.5243 7.4375 25.5 7.4375M25.5 5.3125C14.3508 5.3125 5.3125 14.3508 5.3125 25.5 5.3125 36.6492 14.3508 45.6875 25.5 45.6875 36.6492 45.6875 45.6875 36.6492 45.6875 25.5 45.6875 14.3508 36.6492 5.3125 25.5 5.3125Z" stroke="#156082" stroke-width="0.53125" fill="#156082" transform="matrix(1.01961 0 0 1 452 387)"/></g></svg>