<svg width="52" height="51" xmlns="http://www.w3.org/2000/svg" xmlns:xlink="http://www.w3.org/1999/xlink" xml:space="preserve" overflow="hidden"><g transform="translate(-289 -387)"><path d="M25.5032 5.3125C14.3539 5.3125 5.31569 14.3508 5.31569 25.5 5.31569 36.6492 14.3539 45.6875 25.5032 45.6875 36.6524 45.6875 45.6907 36.6492 45.6907 25.5 45.6907 14.3508 36.6524 5.3125 25.5032 5.3125ZM32.9407 41.9533 32.9407 34.5004C33.4567 34.0741 33.9355 33.6045 34.3719 33.0969 34.7677 32.6636 34.7373 31.9916 34.3041 31.5958 33.8709 31.2 33.1988 31.2304 32.803 31.6636 32.7876 31.6805 32.7728 31.6978 32.7585 31.7156 29.3433 35.7217 23.3272 36.2008 19.3212 32.7857 18.9367 32.4579 18.5789 32.1001 18.2511 31.7156 17.8841 31.2578 17.2153 31.1842 16.7575 31.5513 16.2997 31.9183 16.2261 32.587 16.5931 33.0448 16.6074 33.0627 16.6223 33.08 16.6377 33.0969 19.7281 36.719 24.7113 38.0967 29.2235 36.5766L29.2235 38.7812C29.2235 39.3681 29.6992 39.8438 30.286 39.8438 30.4731 39.8427 30.6565 39.7917 30.8173 39.6961L30.8173 41.9688C30.818 42.2297 30.9155 42.4811 31.0909 42.6743 21.5827 45.7878 11.3507 40.604 8.23719 31.0958 5.12365 21.5876 10.3075 11.3556 19.8157 8.24208 29.3239 5.12853 39.5558 10.3124 42.6694 19.8206 45.544 28.5991 41.3532 38.1347 32.9423 41.9533Z" stroke="#156082" stroke-width="0.53125" fill="#156082" transform="matrix(1.01961 0 0 1 289 387)"/><path d="M12.1072 18.0168C13.8555 12.9816 18.7335 11.9308 18.9401 11.8883 19.5155 11.7698 20.078 12.1401 20.1965 12.7155 20.3151 13.2908 19.9447 13.8534 19.3694 13.9719 16.9386 14.5826 14.9696 16.3601 14.1143 18.7159 13.9319 19.2737 13.332 19.578 12.7742 19.3957 12.2165 19.2135 11.9121 18.6135 12.0944 18.0557 12.0985 18.0434 12.1027 18.0311 12.1072 18.0189Z" stroke="#156082" stroke-width="0.53125" fill="#156082" transform="matrix(1.01961 0 0 1 289 387)"/><path d="M38.7738 19.5681C38.2812 19.8869 37.6233 19.7459 37.3045 19.2533 37.3045 19.2532 37.3044 19.2531 37.3044 19.253 35.9073 17.1779 33.5795 15.9221 31.0781 15.8939 30.4913 15.9165 29.9973 15.4592 29.9747 14.8723 29.9521 14.2855 30.4095 13.7915 30.9963 13.7689 31.2088 13.7631 36.1951 13.6218 39.091 18.097 39.4099 18.5896 39.269 19.2475 38.7765 19.5664 38.7756 19.5669 38.7747 19.5675 38.7738 19.5681Z" stroke="#156082" stroke-width="0.53125" fill="#156082" transform="matrix(1.01961 0 0 1 289 387)"/><path d="M14.6832 24.8349C14.5491 25.4062 13.9773 25.7606 13.4061 25.6265 12.8521 25.4965 12.4988 24.953 12.605 24.3939 13.2198 21.5251 16.0439 19.6977 18.9127 20.3126 20.958 20.7509 22.5558 22.3486 22.9941 24.3939 23.1157 24.9678 22.7492 25.5317 22.1754 25.6535 22.1027 25.6692 22.0284 25.677 21.9539 25.6769 21.4526 25.6763 21.0199 25.3253 20.9158 24.8349 20.5459 23.1138 18.8507 22.0185 17.1296 22.3885 15.904 22.6519 14.9467 23.6093 14.6832 24.8349Z" stroke="#156082" stroke-width="0.53125" fill="#156082" transform="matrix(1.01961 0 0 1 289 387)"/><path d="M37.5817 25.6535C37.5089 25.6692 37.4346 25.677 37.3602 25.6769 36.8588 25.6763 36.4261 25.3253 36.3221 24.8349 35.9521 23.1138 34.257 22.0185 32.5359 22.3885 31.3103 22.6519 30.3529 23.6093 30.0895 24.8349 29.9554 25.4062 29.3836 25.7606 28.8123 25.6265 28.2583 25.4965 27.9051 24.953 28.0112 24.3939 28.626 21.5251 31.4501 19.6977 34.319 20.3126 36.3643 20.7509 37.962 22.3486 38.4003 24.3939 38.5219 24.9678 38.1555 25.5317 37.5817 25.6535Z" stroke="#156082" stroke-width="0.53125" fill="#156082" transform="matrix(1.01961 0 0 1 289 387)"/></g></svg>