<svg width="51" height="51" xmlns="http://www.w3.org/2000/svg" xmlns:xlink="http://www.w3.org/1999/xlink" xml:space="preserve" overflow="hidden"><g transform="translate(-539 -387)"><path d="M559.188 409.312C559.188 411.073 557.76 412.5 556 412.5 554.24 412.5 552.812 411.073 552.812 409.312 552.812 407.552 554.24 406.125 556 406.125 557.76 406.125 559.188 407.552 559.188 409.312Z" stroke="#156082" stroke-width="0.53125" fill="#156082"/><path d="M574.838 419.624C574.373 419.268 573.708 419.356 573.351 419.821 569.6 424.709 562.596 425.63 557.708 421.879 556.935 421.286 556.243 420.594 555.649 419.821 555.291 419.356 554.624 419.269 554.159 419.627 553.694 419.985 553.607 420.652 553.965 421.117 558.432 426.935 566.77 428.031 572.588 423.564 573.507 422.858 574.329 422.036 575.035 421.117 575.393 420.652 575.306 419.985 574.842 419.627 574.84 419.626 574.839 419.625 574.838 419.624Z" stroke="#156082" stroke-width="0.53125" fill="#156082"/><path d="M569.021 405.238C570.447 403.578 572.695 402.877 574.812 403.432 575.374 403.598 575.965 403.277 576.132 402.715 576.135 402.706 576.137 402.697 576.14 402.688 576.313 402.167 576.032 401.605 575.511 401.431 575.491 401.424 575.47 401.418 575.449 401.413 574.777 401.216 574.077 401.127 573.377 401.147 571.089 401.116 568.906 402.11 567.427 403.857 566.991 404.25 566.957 404.921 567.35 405.357 567.743 405.793 568.415 405.828 568.85 405.434 568.915 405.376 568.972 405.31 569.021 405.238Z" stroke="#156082" stroke-width="0.53125" fill="#156082"/><path d="M554.204 403.432C556.321 402.877 558.569 403.578 559.995 405.238 560.322 405.725 560.982 405.855 561.469 405.528 561.957 405.201 562.086 404.54 561.759 404.053 561.711 403.981 561.653 403.915 561.589 403.857 560.11 402.11 557.927 401.116 555.639 401.147 554.938 401.127 554.239 401.216 553.567 401.413 553.036 401.552 552.719 402.095 552.858 402.626 552.863 402.647 552.869 402.667 552.876 402.688 553.028 403.255 553.611 403.591 554.178 403.439 554.187 403.437 554.195 403.434 554.204 403.432Z" stroke="#156082" stroke-width="0.53125" fill="#156082"/><path d="M576.188 409.312C576.188 411.073 574.76 412.5 573 412.5 571.24 412.5 569.812 411.073 569.812 409.312 569.812 407.552 571.24 406.125 573 406.125 574.76 406.125 576.188 407.552 576.188 409.312Z" stroke="#156082" stroke-width="0.53125" fill="#156082"/><path d="M546.703 392.015C547.883 394.862 550.432 396.91 553.466 397.45L554.268 397.593 554.964 397.163C560.803 393.533 568.197 393.533 574.036 397.163L574.732 397.593 575.534 397.45C578.568 396.91 581.117 394.862 582.297 392.015 582.515 392.546 582.693 393.093 582.828 393.651 583.556 396.807 582.828 400.026 581.001 401.997L579.997 403.06 580.661 404.383C585.116 413.308 581.493 424.155 572.568 428.611 563.642 433.066 552.795 429.443 548.339 420.518 547.096 418.027 546.445 415.283 546.438 412.5 546.432 409.686 547.089 406.911 548.355 404.398L549.019 403.076 548.015 402.013C546.161 400.021 545.46 396.823 546.188 393.667 546.323 393.109 546.501 392.562 546.719 392.031M581.898 388.062C581.798 388.063 581.698 388.077 581.601 388.105 581.173 388.229 580.867 388.606 580.836 389.051 580.61 392.203 578.274 394.801 575.162 395.357 568.634 391.296 560.366 391.296 553.838 395.357 550.726 394.801 548.39 392.203 548.164 389.051 548.133 388.606 547.827 388.229 547.399 388.105 547.302 388.077 547.202 388.063 547.102 388.062 546.764 388.062 546.447 388.222 546.246 388.493 545.23 389.892 544.507 391.482 544.121 393.168 543.213 397.094 544.153 400.967 546.438 403.469 541.458 413.444 545.509 425.568 555.484 430.547 565.46 435.526 577.583 431.476 582.562 421.5 585.396 415.823 585.396 409.145 582.562 403.469 584.868 400.993 585.808 397.094 584.9 393.194 584.514 391.509 583.791 389.919 582.775 388.519 582.576 388.232 582.248 388.061 581.898 388.062Z" stroke="#156082" stroke-width="0.53125" fill="#156082"/></g></svg>