<svg width="51" height="51" xmlns="http://www.w3.org/2000/svg" xmlns:xlink="http://www.w3.org/1999/xlink" xml:space="preserve" overflow="hidden"><g transform="translate(-712 -387)"><path d="M726.822 413.562C726.237 413.562 725.759 413.084 725.759 412.5 725.759 412.128 725.972 411.756 726.291 411.597L731.072 408.781 726.291 405.966C725.759 405.647 725.6 405.009 725.919 404.531 726.237 404 726.875 403.841 727.353 404.159L733.728 407.878C734.259 408.197 734.419 408.834 734.1 409.312 733.994 409.472 733.888 409.578 733.728 409.684L727.353 413.403C727.194 413.509 727.034 413.562 726.822 413.562Z" stroke="#156082" stroke-width="0.53125" fill="#156082"/><path d="M737.447 394.438C747.434 394.438 755.509 402.513 755.509 412.5 755.509 422.487 747.434 430.562 737.447 430.562 727.459 430.562 719.384 422.487 719.384 412.5 719.384 402.513 727.459 394.438 737.447 394.438M737.447 392.312C726.291 392.312 717.259 401.344 717.259 412.5 717.259 423.656 726.291 432.688 737.447 432.688 748.603 432.688 757.634 423.656 757.634 412.5 757.634 401.344 748.603 392.312 737.447 392.312Z" stroke="#156082" stroke-width="0.53125" fill="#156082"/><path d="M744.672 423.391C744.406 423.391 744.141 423.284 743.928 423.072L742.281 421.425 740.634 423.072C740.209 423.497 739.572 423.497 739.147 423.072L737.5 421.425 735.853 423.072C735.428 423.497 734.791 423.497 734.366 423.072L732.719 421.425 731.072 423.072C730.647 423.497 730.009 423.497 729.584 423.072L727.194 420.681C726.769 420.256 726.822 419.566 727.194 419.194 727.619 418.822 728.256 418.822 728.681 419.194L730.328 420.841 731.975 419.194C732.4 418.769 733.037 418.769 733.463 419.194L735.109 420.841 736.756 419.194C737.181 418.769 737.819 418.769 738.244 419.194L739.891 420.841 741.537 419.194C741.963 418.769 742.6 418.769 743.025 419.194L744.672 420.841 746.319 419.194C746.744 418.769 747.434 418.822 747.806 419.194 748.178 419.619 748.178 420.256 747.806 420.681L745.416 423.072C745.203 423.284 744.938 423.391 744.672 423.391Z" stroke="#156082" stroke-width="0.53125" fill="#156082"/><path d="M748.603 411.597C749.134 411.916 749.294 412.553 748.975 413.031 748.656 413.562 748.019 413.722 747.541 413.403L747.541 413.403 741.166 409.684C740.634 409.366 740.475 408.728 740.794 408.25 740.9 408.091 741.006 407.984 741.166 407.878L747.541 404.159C748.072 403.841 748.709 404.053 748.975 404.531 749.294 405.062 749.081 405.7 748.603 405.966L743.822 408.781 748.603 411.597Z" stroke="#156082" stroke-width="0.53125" fill="#156082"/></g></svg>